<svg xmlns="http://www.w3.org/2000/svg" xmlns:cc="http://web.resource.org/cc/" xmlns:xlink="http://www.w3.org/1999/xlink" width="22" height="22" version="1.0"><defs><linearGradient id="a" x1="187.61" x2="186.94" y1="489.36" y2="489.36" gradientTransform="translate(-396 -981)" gradientUnits="userSpaceOnUse"><stop offset="0" stop-color="#ce5c00"/><stop offset="1" stop-color="#ce5c00" stop-opacity="0"/></linearGradient><linearGradient id="b" x1="187.82" x2="187.17" y1="489.55" y2="489.55" gradientTransform="translate(-396 -981)" gradientUnits="userSpaceOnUse"><stop offset="0" stop-color="#fcaf3e"/><stop offset="1" stop-color="#fcaf3e" stop-opacity="0"/></linearGradient><linearGradient id="c" x1="187.61" x2="186.94" y1="489.36" y2="489.36" gradientUnits="userSpaceOnUse"><stop offset="0" stop-color="#ce5c00"/><stop offset="1" stop-color="#ce5c00" stop-opacity="0"/></linearGradient><linearGradient id="d" x1="187.82" x2="187.17" y1="489.55" y2="489.55" gradientUnits="userSpaceOnUse"><stop offset="0" stop-color="#fcaf3e"/><stop offset="1" stop-color="#fcaf3e" stop-opacity="0"/></linearGradient></defs><g transform="matrix(0 -1 1 0 -60 -168)"><rect width="12" height="7" x="-76.5" y="-177.5" fill="#d3d7cf" stroke="#888a85" stroke-linejoin="round" stroke-miterlimit="3" transform="rotate(-90)"/><g transform="translate(-317,-410)"><rect width="18" height="7.004" x="-489.5" y="129.5" fill="#d3d7cf" fill-rule="evenodd" stroke="#888a85" stroke-linejoin="round" stroke-miterlimit="0" stroke-width="1" color="#000" transform="rotate(-90)"/><rect width="16" height="5" x="-488.5" y="130.5" fill="none" stroke="#fff" stroke-linecap="round" stroke-miterlimit="2" stroke-width="1" color="#000" rx="0" ry="0" transform="rotate(-90)"/></g><rect width="10" height="5" x="-75.5" y="-176.5" fill="none" stroke="#fff" stroke-miterlimit="3" rx="0" ry="0" transform="rotate(-90)"/><g stroke-linejoin="round" stroke-miterlimit="0" transform="translate(-377,-420)"><rect width="3" height="2" x="186.5" y="489.5" fill="url(#d)" stroke="url(#c)"/><g fill="#fcaf3e" stroke="#ce5c00"><rect width="3" height="2" x="191.5" y="489.5"/><rect width="3" height="2" x="196.5" y="489.5"/><rect width="3" height="2" x="201.5" y="489.5"/></g><rect width="3" height="2" x="-209.5" y="-491.5" fill="url(#b)" stroke="url(#a)" transform="scale(-1)"/></g></g></svg>