<svg xmlns="http://www.w3.org/2000/svg" xmlns:cc="http://web.resource.org/cc/" xmlns:xlink="http://www.w3.org/1999/xlink" width="22" height="22" version="1.0"><defs><linearGradient id="a" x1="187.61" x2="186.94" y1="489.36" y2="489.36" gradientTransform="matrix(-1 0 0 -1 396 981)" gradientUnits="userSpaceOnUse"><stop offset="0" stop-color="#ce5c00"/><stop offset="1" stop-color="#ce5c00" stop-opacity="0"/></linearGradient><linearGradient id="b" x1="187.82" x2="187.17" y1="489.55" y2="489.55" gradientTransform="matrix(-1 0 0 -1 396 981)" gradientUnits="userSpaceOnUse"><stop offset="0" stop-color="#fcaf3e"/><stop offset="1" stop-color="#fcaf3e" stop-opacity="0"/></linearGradient><linearGradient id="c" x1="187.61" x2="186.94" y1="489.36" y2="489.36" gradientUnits="userSpaceOnUse"><stop offset="0" stop-color="#ce5c00"/><stop offset="1" stop-color="#ce5c00" stop-opacity="0"/></linearGradient><linearGradient id="d" x1="187.82" x2="187.17" y1="489.55" y2="489.55" gradientUnits="userSpaceOnUse"><stop offset="0" stop-color="#fcaf3e"/><stop offset="1" stop-color="#fcaf3e" stop-opacity="0"/></linearGradient></defs><g><g fill="#d3d7cf" stroke-miterlimit="3" transform="matrix(0 -1 1 0 .000089288 52) translate(-127,-473)"><rect width="12" height="7" x="475.5" y="169.5" stroke="#888a85" stroke-linejoin="round" transform="matrix(0,1,1,0,0,0)"/><rect width="10" height="5" x="476.5" y="170.5" stroke="#fff" rx="0" ry="0" transform="matrix(0,1,1,0,0,0)"/></g><g transform="matrix(0 -1 1 0 .000089288 52) translate(-97,-469)"><rect width="18" height="7.004" x="-489.5" y="129.5" fill="#d3d7cf" fill-rule="evenodd" stroke="#888a85" stroke-linejoin="round" stroke-miterlimit="0" stroke-width="1" color="#000" transform="rotate(-90)"/><rect width="16" height="5" x="-488.5" y="130.5" fill="none" stroke="#fff" stroke-linecap="round" stroke-miterlimit="2" stroke-width="1" color="#000" rx="0" ry="0" transform="rotate(-90)"/></g><g stroke-linejoin="round" stroke-miterlimit="0" transform="matrix(0 -1 1 0 .000089288 52) translate(-157,-488)"><rect width="3" height="2" x="196.5" y="489.5" fill="#fcaf3e" stroke="#ce5c00"/><path fill="url(#d)" stroke="url(#c)" d="m197.5 491.5h-11v-2h11"/><path fill="url(#b)" stroke="url(#a)" d="m198.5 489.5h11v2h-11"/></g></g></svg>