<svg xmlns="http://www.w3.org/2000/svg" xmlns:cc="http://web.resource.org/cc/" xmlns:xlink="http://www.w3.org/1999/xlink" width="22" height="22"><defs><radialGradient id="a" cx="22.571" cy="30.857" r="15.571" gradientTransform="matrix(1 0 0 .65138 4.3004e-15 10.758)" gradientUnits="userSpaceOnUse"><stop offset="0"/><stop offset="1" stop-opacity="0"/></radialGradient><linearGradient id="c" x1="19.944" x2="24.134" y1="16.527" y2="19.642" gradientTransform="matrix(.49826 0 0 .46652 -.79997 -.83964)" gradientUnits="userSpaceOnUse"><stop offset="0" stop-color="#fff"/><stop offset="1" stop-color="#b3b3b3" stop-opacity="0"/></linearGradient><linearGradient id="b" x1="23.306" x2="14.389" y1="24.844" y2="9.59" gradientTransform="matrix(.49826 0 0 .48860 -.79997 -1.2736)" gradientUnits="userSpaceOnUse"><stop offset="0" stop-color="#1f1f1f"/><stop offset="1" stop-color="#5c5c5c"/></linearGradient></defs><path fill="url(#a)" d="m38.143 30.857a15.571 10.143 0 1 1 -31.143 0 15.571 10.143 0 1 1 31.143 0z" color="#000" opacity=".474" transform="matrix(.70642 0 0 .20802 -4.945 13.471)"/><path fill="url(#b)" stroke="#000" stroke-linecap="round" stroke-linejoin="round" d="m15.189 15.521h-8.0359l-1.2933 3.993h-5.3435l7.5846-19.026 6.1271 0.00038 7.333 18.977h-5.117l-1.255-3.944m-6.7899-3.047h5.4599l-2.688-7.3213-2.7719 7.3213"/><path fill="none" stroke="url(#c)" stroke-linejoin="round" d="m15.685 15.16h-9.0139l-1.2544 3.367h-3.4132l6.735-17.065 4.7735 0.0002 6.511 16.948h-3.123l-1.215-3.25z" opacity=".379"/><image width="400" height="459" x="-354.94" y="-214.54" xlink:href="/home/andreas/palette2.png"/><path fill="none" stroke="#999" stroke-linecap="round" d="m8.1687 13.552h5.9793" opacity=".511"/></svg>