<svg xmlns="http://www.w3.org/2000/svg" xmlns:xlink="http://www.w3.org/1999/xlink" width="16" height="16" version="1.0"><defs><linearGradient id="a" x1="-39.422" x2="-39.422" y1="-5.255" y2="47.208" gradientTransform="matrix(.21865 0 0 .26685 56.619 1.4022)" gradientUnits="userSpaceOnUse"><stop offset="0"/><stop offset="1" stop-color="#363636"/></linearGradient></defs><rect width="163.31" height="97.986" x="-62.897" y="-32.993" fill-opacity="0" color="#000"/><g><path fill="#fff" d="m43.35 1.0021c-0.19747 0.03825-0.35356 0.23333-0.35 0.43744l-0.000307 13.123c0.000004 0.22904 0.20522 0.43743 0.43077 0.43744h10.14c0.22555-0.000006 0.43077-0.2084 0.43077-0.43744l0.000307-12.961c-0.000329-0.33644-0.2655-0.60186-0.51687-0.5999h-10.135zm0.65 9.9979h9l0.000413 3h-9z" color="#000" opacity=".6" transform="translate(-40 1)" style="block-progression:tb;text-indent:0;text-transform:none"/><path fill="url(#a)" d="m43.35 0.0020508c-0.19747 0.03825-0.35356 0.23333-0.35 0.43744l-0.000307 13.123c0.000004 0.22904 0.20522 0.43743 0.43077 0.43744h10.14c0.22555-0.000006 0.43077-0.2084 0.43077-0.43744v-12.96c0-0.33649-0.266-0.60191-0.517-0.59995h-10.135zm0.65 9.9979h9l0.000413 3h-9z" color="#000" opacity=".7" transform="translate(-40 1)" style="block-progression:tb;text-indent:0;text-transform:none"/></g></svg>