<svg xmlns="http://www.w3.org/2000/svg" width="32" height="32" version="1.1"><g><path d="m-569.5 3.7015c-1.5571 0.077749-2.9941 1.0632-3.5625 2.625l-1.1875 3.25h14.188c3.6656 0.37727 6.2934 2.4438 6.3438 6.3438v7.4375l3.2188-8.8125c0.75791-2.0824-0.3239-4.3671-2.4062-5.125l-15.031-5.4688c-0.52059-0.18948-1.0435-0.27592-1.5625-0.25zm-5.2188 7.875c-2.216 0-4 1.784-4 4v9c0 2.216 1.784 4 4 4h15c2.216 0 4-1.784 4-4v-9c0-2.216-1.784-4-4-4z" transform="translate(580.71 -1.5765)"/><path fill="#fff" d="m-569.5 4.7015c-1.5571 0.077749-2.9941 1.0632-3.5625 2.625l-1.1875 3.25h14.188c3.6656 0.37727 6.2934 2.4438 6.3438 6.3438v7.4375l3.2188-8.8125c0.75791-2.0824-0.3239-4.3671-2.4062-5.125l-15.031-5.4688c-0.52059-0.18948-1.0435-0.27592-1.5625-0.25zm-5.2188 7.875c-2.216 0-4 1.784-4 4v9c0 2.216 1.784 4 4 4h15c2.216 0 4-1.784 4-4v-9c0-2.216-1.784-4-4-4z" transform="translate(580.71 -1.5765)"/></g></svg>