<svg xmlns="http://www.w3.org/2000/svg" xmlns:xlink="http://www.w3.org/1999/xlink" style="background-color:#ffffff00" width="100" height="200" x="0" y="0" version="1.1" viewBox="0 0 100 200" xml:space="preserve"><defs><radialGradient id="b"><stop offset=".7" stop-color="#222" stop-opacity="0"/><stop offset=".702" stop-color="#222" stop-opacity=".012"/><stop offset=".85" stop-color="#333"/><stop offset="1" stop-color="#333" stop-opacity="0"/></radialGradient><radialGradient id="a"><stop offset=".7" stop-color="#bbb" stop-opacity="0"/><stop offset=".702" stop-color="#bbb" stop-opacity=".012"/><stop offset=".85" stop-color="#bbb"/><stop offset="1" stop-color="#bbb" stop-opacity="0"/></radialGradient><filter id="d" width="300%" height="300%" x="-100%" y="-100%"><feColorMatrix in="SourceGraphic" result="out" type="matrix" values="0 0 0 0 0 0 0 0 0 0 0 0 0 0 0 0 0 0 0.251 0"/><feMorphology in="out" operator="dilate" radius="3" result="out"/><feGaussianBlur in="out" result="out" stdDeviation="1.5"/><feBlend in="SourceGraphic" in2="out" mode="normal" result="Glow1"/></filter><filter id="c" width="300%" height="300%" x="-100%" y="-100%"><feColorMatrix in="SourceGraphic" result="out" type="matrix" values="0 0 0 0.8667 0 0 0 0 0.8667 0 0 0 0 0.8667 0 0 0 0 0.251 0"/><feMorphology in="out" operator="dilate" radius="3" result="out"/><feGaussianBlur in="out" result="out" stdDeviation="1.5"/><feBlend in="SourceGraphic" in2="out" mode="normal" result="Glow2"/></filter></defs><path fill="url(#b)" d="m22 50c0-15.464 12.536-28 28-28s28 12.536 28 28-12.536 28-28 28-28-12.536-28-28zm-17 0c0 24.853 20.147 45 45 45s45-20.147 45-45-20.147-45-45-45-45 20.147-45 45z"/><path fill="url(#a)" d="m22 150c0-15.46 12.536-28 28-28s28 12.54 28 28-12.536 28-28 28-28-12.54-28-28zm-17 0c0 24.85 20.147 45 45 45s45-20.15 45-45-20.147-45-45-45-45 20.15-45 45z"/><path fill="#fff" d="m72.5 49.5l-33.75 19.486v-38.972l33.75 19.486z" filter="url(#d)"/><path fill="none" stroke="#fff" stroke-width="5" d="m13 50.5c0-20.711 16.789-37.5 37.5-37.5s37.5 16.789 37.5 37.5-16.789 37.5-37.5 37.5-37.5-16.789-37.5-37.5z"/><path fill="#fff" d="m72.5 149.5l-33.75 19.49v-38.98l33.75 19.49z" filter="url(#c)"/><path fill="none" stroke="#fff" stroke-width="5" d="m13 150.5c0-20.71 16.789-37.5 37.5-37.5s37.5 16.79 37.5 37.5-16.789 37.5-37.5 37.5-37.5-16.79-37.5-37.5z"/></svg>