<svg xmlns="http://www.w3.org/2000/svg" xmlns:xlink="http://www.w3.org/1999/xlink" width="144" height="32" x="0" y="0" version="1.1" viewBox="0 0 144 32" xml:space="preserve" style="background-color:#ffffff00"><defs><radialGradient id="l"><stop offset="0" stop-color="#fff"/><stop offset="1" stop-color="#f2f2f2" stop-opacity=".2"/></radialGradient><linearGradient id="f" x1="50%" x2="50%" y1="-7.865%" y2="249.66%"><stop offset="0" stop-color="#fff"/><stop offset="1" stop-color="#c8c8c8"/></linearGradient><linearGradient id="b" x1="50%" x2="50%" y2="238.75%"><stop offset="0" stop-color="#fff"/><stop offset="1" stop-color="#c8c8c8"/></linearGradient><linearGradient id="a" x1="50%" x2="50%" y2="100%"><stop offset="0" stop-color="#fff"/><stop offset="1" stop-color="#c8c8c8"/></linearGradient><linearGradient id="c" x1="50%" x2="50%" y1="-33.333%" y2="152.08%"><stop offset="0" stop-color="#fff"/><stop offset="1" stop-color="#c8c8c8"/></linearGradient><linearGradient id="k" x1="40%" x2="40%" y1="-140%" y2="98.75%"><stop offset="0" stop-color="#fff"/><stop offset="1" stop-color="#c8c8c8"/></linearGradient><linearGradient id="j" x1="60%" x2="60%" y1="-140%" y2="98.75%"><stop offset="0" stop-color="#fff"/><stop offset="1" stop-color="#c8c8c8"/></linearGradient><linearGradient id="i" x1="50%" x2="50%" y2="298.44%"><stop offset="0" stop-color="#fff"/><stop offset="1" stop-color="#c8c8c8"/></linearGradient><linearGradient id="h" x1="50%" x2="50%" y1="-200%" y2="100%"><stop offset="0" stop-color="#fff"/><stop offset="1" stop-color="#c8c8c8"/></linearGradient><linearGradient id="g" x1="50%" x2="50%" y1="-200%" y2="110.94%"><stop offset="0" stop-color="#fff"/><stop offset="1" stop-color="#c8c8c8"/></linearGradient><linearGradient id="e" x1="55%" x2="55%" y2="100%"><stop offset="0" stop-color="#fff"/><stop offset="1" stop-color="#c8c8c8"/></linearGradient><linearGradient id="d" x1="50%" x2="50%" y2="100%"><stop offset="0" stop-color="#fff"/><stop offset=".994" stop-color="#c8c8c8"/></linearGradient></defs><g fill="none" stroke="#fff"><path d="m98.5 7.5h11"/><path d="m98.5 3.5h11"/><path d="m98.5 11.5h11"/></g><g fill="#fff"><path d="m108 11.5c0-0.828 0.45-1.5 1-1.5s1 0.672 1 1.5-0.45 1.5-1 1.5-1-0.672-1-1.5z"/><path d="m104 7.5c0-0.8284 0.45-1.5 1-1.5s1 0.6716 1 1.5-0.45 1.5-1 1.5-1-0.6716-1-1.5z"/><path d="m108 3.5c0-0.8284 0.45-1.5 1-1.5s1 0.6716 1 1.5-0.45 1.5-1 1.5-1-0.6716-1-1.5z"/></g><rect width="10" height="6" x="83" y="21" fill="#333" stroke="#fff"/><path fill="url(#l)" d="m81 8c0-2.7615 3.134-5 7-5s7 2.2385 7 5c0 2.762-3.134 5-7 5s-7-2.238-7-5z"/><rect width="10" height="6" x="83" y="5" fill="#333" stroke="#fff"/><path fill="url(#f)" d="m73.795 4.205c1.421 0.6735 2.405 2.1184 2.405 3.795 0 2.32-1.88 4.2-4.2 4.2s-4.2-1.88-4.2-4.2c0-1.6766 0.984-3.1215 2.405-3.795l-1.33-1.33c-1.725 1.0539-2.875 2.9556-2.875 5.125 0 3.314 2.686 6 6 6s6-2.686 6-6c0-2.1694-1.15-4.0711-2.875-5.125l-1.33 1.33z"/><path fill="url(#b)" d="m71 2h-5l5 5v-5z"/><g fill="#a8a8b7"><path d="m73.795 20.205c1.421 0.673 2.405 2.118 2.405 3.795 0 2.32-1.88 4.2-4.2 4.2s-4.2-1.88-4.2-4.2c0-1.677 0.984-3.122 2.405-3.795l-1.33-1.33c-1.725 1.054-2.875 2.956-2.875 5.125 0 3.314 2.686 6 6 6s6-2.686 6-6c0-2.169-1.15-4.071-2.875-5.125l-1.33 1.33z"/><path d="m71 18h-5l5 5v-5z"/></g><rect width="14" height="12" x="49" y="2" fill="none" stroke="#b0b0b0" visibility="hidden"/><text width="14" x="49" y="17" fill="#fff" color="#fff" font-family="Arial" font-size="10" visibility="hidden" style="text-align:center"><tspan><![CDATA[cc]]></tspan></text><path fill="none" stroke="#fff" d="m55 7c-4.719-3.2187-4.937 5.94 0 3"/><path fill="none" stroke="#fff" d="m60 7c-4.719-3.2187-4.937 5.94 0 3"/><path fill="url(#a)" d="m50 3h12v10h-12v-10zm-1-1v12h14v-12h-14z"/><rect width="14" height="12" x="49" y="2" fill="none"/><rect width="5" height="6" x="17" y="5" fill="url(#c)"/><path fill="url(#a)" d="m21 5l4-3v12l-4-2.938v-6.062z"/><rect width="5" height="6" x="17" y="21" fill="url(#c)"/><path fill="url(#a)" d="m21 21l4-3v12l-4-2.938v-6.062z"/><path fill="none" stroke="#fff" d="m27 18s3.062-0.625 3 6-3 6-3 6"/><path fill="none" stroke="#fff" d="m26 21.008s2.041-0.312 1.999 2.992c-0.041 3.304-1.999 2.992-1.999 2.992"/><path fill="url(#a)" d="m14 8.5l-11 5.5v-11l11 5.5z"/><g fill="url(#a)"><rect width="3" height="12" x="3" y="18"/><rect width="3" height="12" x="10" y="18"/></g><path fill="url(#b)" d="m34 2h5l-5 5v-5z"/><path fill="url(#k)" d="m34 14h5l-5-5v5z"/><path fill="url(#b)" d="m46 2h-5l5 5v-5z"/><path fill="url(#j)" d="m46 14h-5l5-5v5z"/><path fill="url(#i)" d="m42 22h4l-4-4v4z"/><path fill="url(#b)" d="m38 22v-4l-4 4h4z"/><path fill="url(#h)" d="m38 26h-4l4 4v-4z"/><path fill="url(#g)" d="m42 26v4l4-4h-4z"/><rect width="10" height="10" x="115" y="3" fill="url(#e)"/><path fill="url(#d)" d="m135.23 6.1522c1.03-0.4227 2.2 0.0619 2.62 1.0824s-0.06 2.1904-1.08 2.6132c-1.03 0.4222-2.2-0.0619-2.62-1.0824s0.06-2.1905 1.08-2.6132zm-1.96-4.7346l2.73 2.5878 2.73-2.5878 0.09 3.7578 3.76 0.0981-2.59 2.7265 2.59 2.726-3.76 0.099-0.09 3.757-2.73-2.587-2.73 2.587-0.09-3.757-3.76-0.099 2.59-2.726-2.59-2.7265 3.76-0.0981 0.09-3.7578z"/></svg>